<mxfile host="app.diagrams.net" agent="Mozilla/5.0 (Windows NT 10.0; Win64; x64) AppleWebKit/537.36 (KHTML, like Gecko) Chrome/131.0.0.0 Safari/537.36" version="26.0.1">
  <diagram name="Page-1" id="e7e014a7-5840-1c2e-5031-d8a46d1fe8dd">
    <mxGraphModel dx="2647" dy="1400" grid="1" gridSize="10" guides="1" tooltips="1" connect="1" arrows="1" fold="1" page="1" pageScale="1" pageWidth="1169" pageHeight="826" background="none" math="0" shadow="0">
      <root>
        <mxCell id="0" />
        <mxCell id="1" parent="0" />
        <mxCell id="f7cl8_hFi0AJuyGyGnWQ-41" value="中游——下游企业匹配" style="swimlane;childLayout=stackLayout;resizeParent=1;resizeParentMax=0;startSize=20;html=1;" vertex="1" parent="1">
          <mxGeometry x="380.00000000000045" y="680" width="930" height="1400" as="geometry" />
        </mxCell>
        <mxCell id="f7cl8_hFi0AJuyGyGnWQ-42" value="智能单品制造商（中游）" style="swimlane;startSize=20;html=1;" vertex="1" parent="f7cl8_hFi0AJuyGyGnWQ-41">
          <mxGeometry y="20" width="470" height="1380" as="geometry" />
        </mxCell>
        <mxCell id="f7cl8_hFi0AJuyGyGnWQ-79" value="家具城" style="swimlane;startSize=20;html=1;" vertex="1" parent="f7cl8_hFi0AJuyGyGnWQ-41">
          <mxGeometry x="470" y="20" width="460" height="1380" as="geometry" />
        </mxCell>
      </root>
    </mxGraphModel>
  </diagram>
</mxfile>
